<mxfile host="app.diagrams.net" agent="Mozilla/5.0 (Windows NT 10.0; Win64; x64) AppleWebKit/537.36 (KHTML, like Gecko) Chrome/130.0.0.0 Safari/537.36" version="24.8.0">
  <diagram name="Page-1" id="ESRX2Ih1_zsDlDorJxd5">
    <mxGraphModel dx="1114" dy="506" grid="0" gridSize="10" guides="1" tooltips="1" connect="1" arrows="1" fold="1" page="1" pageScale="1" pageWidth="850" pageHeight="1100" background="#ffffff" math="0" shadow="0">
      <root>
        <mxCell id="0" />
        <mxCell id="1" parent="0" />
        <mxCell id="Iqq4GQ1WQL92ISw8EH89-15" value="" style="edgeStyle=orthogonalEdgeStyle;rounded=0;orthogonalLoop=1;jettySize=auto;html=1;" parent="1" source="Iqq4GQ1WQL92ISw8EH89-1" target="Iqq4GQ1WQL92ISw8EH89-13" edge="1">
          <mxGeometry relative="1" as="geometry" />
        </mxCell>
        <mxCell id="Iqq4GQ1WQL92ISw8EH89-1" value="Start" style="ellipse;whiteSpace=wrap;html=1;" parent="1" vertex="1">
          <mxGeometry x="361" y="48" width="98" height="49" as="geometry" />
        </mxCell>
        <mxCell id="Iqq4GQ1WQL92ISw8EH89-23" value="" style="edgeStyle=orthogonalEdgeStyle;rounded=0;orthogonalLoop=1;jettySize=auto;html=1;" parent="1" source="Iqq4GQ1WQL92ISw8EH89-13" target="Iqq4GQ1WQL92ISw8EH89-16" edge="1">
          <mxGeometry relative="1" as="geometry" />
        </mxCell>
        <mxCell id="Iqq4GQ1WQL92ISw8EH89-13" value="Get the ward environment variable" style="shape=parallelogram;perimeter=parallelogramPerimeter;whiteSpace=wrap;html=1;fixedSize=1;" parent="1" vertex="1">
          <mxGeometry x="325" y="130" width="170" height="70" as="geometry" />
        </mxCell>
        <mxCell id="Iqq4GQ1WQL92ISw8EH89-24" value="" style="edgeStyle=orthogonalEdgeStyle;rounded=0;orthogonalLoop=1;jettySize=auto;html=1;" parent="1" source="Iqq4GQ1WQL92ISw8EH89-16" target="Iqq4GQ1WQL92ISw8EH89-17" edge="1">
          <mxGeometry relative="1" as="geometry" />
        </mxCell>
        <mxCell id="Iqq4GQ1WQL92ISw8EH89-25" value="" style="edgeStyle=orthogonalEdgeStyle;rounded=0;orthogonalLoop=1;jettySize=auto;html=1;" parent="1" source="Iqq4GQ1WQL92ISw8EH89-16" target="Iqq4GQ1WQL92ISw8EH89-18" edge="1">
          <mxGeometry relative="1" as="geometry" />
        </mxCell>
        <mxCell id="Iqq4GQ1WQL92ISw8EH89-16" value="Is WARD set?" style="rhombus;whiteSpace=wrap;html=1;" parent="1" vertex="1">
          <mxGeometry x="360" y="220" width="100" height="80" as="geometry" />
        </mxCell>
        <mxCell id="Iqq4GQ1WQL92ISw8EH89-17" value="Print &quot;WARD is not set&quot;and exit" style="rounded=0;whiteSpace=wrap;html=1;" parent="1" vertex="1">
          <mxGeometry x="205" y="230" width="120" height="60" as="geometry" />
        </mxCell>
        <mxCell id="Iqq4GQ1WQL92ISw8EH89-26" value="" style="edgeStyle=orthogonalEdgeStyle;rounded=0;orthogonalLoop=1;jettySize=auto;html=1;" parent="1" source="Iqq4GQ1WQL92ISw8EH89-18" target="Iqq4GQ1WQL92ISw8EH89-19" edge="1">
          <mxGeometry relative="1" as="geometry" />
        </mxCell>
        <mxCell id="Iqq4GQ1WQL92ISw8EH89-27" value="" style="edgeStyle=orthogonalEdgeStyle;rounded=0;orthogonalLoop=1;jettySize=auto;html=1;" parent="1" source="Iqq4GQ1WQL92ISw8EH89-18" target="Iqq4GQ1WQL92ISw8EH89-22" edge="1">
          <mxGeometry relative="1" as="geometry" />
        </mxCell>
        <mxCell id="Iqq4GQ1WQL92ISw8EH89-18" value="Directory exist?" style="rhombus;whiteSpace=wrap;html=1;" parent="1" vertex="1">
          <mxGeometry x="355" y="340" width="110" height="80" as="geometry" />
        </mxCell>
        <mxCell id="Iqq4GQ1WQL92ISw8EH89-19" value="Print &quot;The directory is not readable: {directory}&quot; and exit" style="rounded=0;whiteSpace=wrap;html=1;" parent="1" vertex="1">
          <mxGeometry x="205" y="350" width="120" height="60" as="geometry" />
        </mxCell>
        <mxCell id="Iqq4GQ1WQL92ISw8EH89-29" value="" style="edgeStyle=orthogonalEdgeStyle;rounded=0;orthogonalLoop=1;jettySize=auto;html=1;" parent="1" source="Iqq4GQ1WQL92ISw8EH89-20" target="Iqq4GQ1WQL92ISw8EH89-21" edge="1">
          <mxGeometry relative="1" as="geometry" />
        </mxCell>
        <mxCell id="Iqq4GQ1WQL92ISw8EH89-20" value="Print the table" style="rounded=0;whiteSpace=wrap;html=1;" parent="1" vertex="1">
          <mxGeometry x="350" y="550" width="120" height="60" as="geometry" />
        </mxCell>
        <mxCell id="Iqq4GQ1WQL92ISw8EH89-21" value="End" style="ellipse;whiteSpace=wrap;html=1;" parent="1" vertex="1">
          <mxGeometry x="357.5" y="640" width="105" height="59" as="geometry" />
        </mxCell>
        <mxCell id="Iqq4GQ1WQL92ISw8EH89-28" value="" style="edgeStyle=orthogonalEdgeStyle;rounded=0;orthogonalLoop=1;jettySize=auto;html=1;" parent="1" source="Iqq4GQ1WQL92ISw8EH89-22" target="Iqq4GQ1WQL92ISw8EH89-20" edge="1">
          <mxGeometry relative="1" as="geometry" />
        </mxCell>
        <mxCell id="Iqq4GQ1WQL92ISw8EH89-22" value="Check for pass/fail stage in log directory" style="rounded=0;whiteSpace=wrap;html=1;" parent="1" vertex="1">
          <mxGeometry x="350" y="450" width="120" height="60" as="geometry" />
        </mxCell>
        <mxCell id="Iqq4GQ1WQL92ISw8EH89-45" value="" style="endArrow=classic;html=1;rounded=0;exitX=0;exitY=0.5;exitDx=0;exitDy=0;" parent="1" source="Iqq4GQ1WQL92ISw8EH89-17" edge="1">
          <mxGeometry width="50" height="50" relative="1" as="geometry">
            <mxPoint x="70" y="260" as="sourcePoint" />
            <mxPoint x="410" y="620" as="targetPoint" />
            <Array as="points">
              <mxPoint x="80" y="260" />
              <mxPoint x="80" y="620" />
            </Array>
          </mxGeometry>
        </mxCell>
        <mxCell id="Iqq4GQ1WQL92ISw8EH89-46" value="" style="endArrow=classic;html=1;rounded=0;" parent="1" edge="1">
          <mxGeometry width="50" height="50" relative="1" as="geometry">
            <mxPoint x="205" y="380" as="sourcePoint" />
            <mxPoint x="80" y="380" as="targetPoint" />
          </mxGeometry>
        </mxCell>
        <mxCell id="Iqq4GQ1WQL92ISw8EH89-47" value="Yes" style="text;html=1;align=center;verticalAlign=middle;whiteSpace=wrap;rounded=0;rotation=0;" parent="1" vertex="1">
          <mxGeometry x="400" y="300" width="60" height="30" as="geometry" />
        </mxCell>
        <mxCell id="Iqq4GQ1WQL92ISw8EH89-48" value="Yes" style="text;html=1;align=center;verticalAlign=middle;whiteSpace=wrap;rounded=0;rotation=0;" parent="1" vertex="1">
          <mxGeometry x="400" y="420" width="60" height="30" as="geometry" />
        </mxCell>
        <mxCell id="Iqq4GQ1WQL92ISw8EH89-49" value="No" style="text;html=1;align=center;verticalAlign=middle;whiteSpace=wrap;rounded=0;rotation=0;" parent="1" vertex="1">
          <mxGeometry x="320" y="230" width="60" height="30" as="geometry" />
        </mxCell>
        <mxCell id="Iqq4GQ1WQL92ISw8EH89-51" value="No" style="text;html=1;align=center;verticalAlign=middle;whiteSpace=wrap;rounded=0;rotation=0;" parent="1" vertex="1">
          <mxGeometry x="310" y="350" width="60" height="30" as="geometry" />
        </mxCell>
      </root>
    </mxGraphModel>
  </diagram>
</mxfile>
